<svg xmlns="http://www.w3.org/2000/svg" xmlns:xlink="http://www.w3.org/1999/xlink" width="1920" zoomAndPan="magnify" viewBox="0 0 1440 809.999993" height="1080" preserveAspectRatio="xMidYMid meet" version="1.0"><defs><g/><clipPath id="fe1a4873dd"><rect x="0" width="345" y="0" height="810"/></clipPath><clipPath id="10f2e1c7fb"><path d="M 0.601562 5 L 521 5 L 521 319 L 0.601562 319 Z M 0.601562 5 " clip-rule="nonzero"/></clipPath><clipPath id="a23ca5b705"><rect x="0" width="521" y="0" height="314"/></clipPath><clipPath id="629aaed4d1"><path d="M 502 94 L 992.519531 94 L 992.519531 756 L 502 756 Z M 502 94 " clip-rule="nonzero"/></clipPath><clipPath id="e816791b19"><rect x="0" width="491" y="0" height="662"/></clipPath><clipPath id="045d409d1d"><rect x="0" width="993" y="0" height="810"/></clipPath></defs><g transform="matrix(1, 0, 0, 1, 195, 0.000000000000039746)"><g clip-path="url(#045d409d1d)"><g transform="matrix(1, 0, 0, 1, 236, 0.000000000000039746)"><g clip-path="url(#fe1a4873dd)"><g fill="#f5f3ee" fill-opacity="1"><g transform="translate(1.425865, 665.168537)"><g><path d="M 235.875 31.015625 L 79.484375 -294.046875 L 18.09375 -264.3125 L 5.8125 -290.8125 L 105.34375 -339.28125 L 226.1875 -89.828125 L 312.140625 -593.25 L 341.21875 -588.734375 Z M 235.875 31.015625 "/></g></g></g></g></g><g clip-path="url(#10f2e1c7fb)"><g transform="matrix(1, 0, 0, 1, 0, 5)"><g clip-path="url(#a23ca5b705)"><g fill="#f5f3ee" fill-opacity="1"><g transform="translate(0.836415, 243.880021)"><g><path d="M 8.5625 -16.140625 C 13.125 -17.285156 17.8125 -19.894531 22.625 -23.96875 C 27.4375 -28.050781 32.859375 -34.171875 38.890625 -42.328125 L 67.28125 -80.234375 L 27.890625 -130.15625 C 22.835938 -136.675781 18.757812 -144.335938 15.65625 -153.140625 L 3.421875 -152.40625 L 3.421875 -171.25 L 77.796875 -171.25 L 77.796875 -155.109375 C 67.679688 -155.109375 62.625 -152.820312 62.625 -148.25 C 62.625 -145.644531 64.175781 -142.382812 67.28125 -138.46875 L 88.796875 -110.828125 L 89.046875 -110.828125 L 107.640625 -136.515625 C 113.023438 -143.847656 117.835938 -149.390625 122.078125 -153.140625 L 122.078125 -153.390625 L 109.84375 -152.65625 L 103.734375 -152.40625 L 103.734375 -171.25 L 159.265625 -171.25 L 159.265625 -155.109375 C 153.710938 -154.453125 148.203125 -151.921875 142.734375 -147.515625 C 137.273438 -143.109375 131.285156 -136.421875 124.765625 -127.453125 L 101.28125 -95.40625 L 147.28125 -36.703125 C 153.632812 -28.867188 157.875 -22.671875 160 -18.109375 C 165.375 -18.597656 168.71875 -18.84375 170.03125 -18.84375 L 170.03125 0 L 96.875 0 L 96.875 -16.140625 C 106.007812 -16.140625 110.578125 -18.097656 110.578125 -22.015625 C 110.578125 -24.296875 108.703125 -27.882812 104.953125 -32.78125 L 80.234375 -64.34375 L 80 -64.34375 L 58.46875 -34.734375 C 52.59375 -26.742188 48.109375 -21.203125 45.015625 -18.109375 L 45.015625 -17.859375 C 52.191406 -18.515625 57.984375 -18.84375 62.390625 -18.84375 L 62.390625 0 L 8.5625 0 Z M 8.5625 -16.140625 "/></g></g></g><g fill="#f5f3ee" fill-opacity="1"><g transform="translate(187.985329, 243.880021)"><g><path d="M 12.234375 -16.140625 C 16.640625 -16.304688 19.984375 -16.835938 22.265625 -17.734375 C 24.546875 -18.628906 26.335938 -20.546875 27.640625 -23.484375 C 28.941406 -26.421875 29.59375 -31.070312 29.59375 -37.4375 L 29.59375 -131.125 C 29.59375 -140.257812 29.921875 -147.597656 30.578125 -153.140625 L 12.234375 -152.40625 L 12.234375 -171.25 L 82.4375 -171.25 L 82.4375 -155.109375 C 78.039062 -154.941406 74.695312 -154.410156 72.40625 -153.515625 C 70.125 -152.617188 68.332031 -150.703125 67.03125 -147.765625 C 65.726562 -144.828125 65.078125 -140.175781 65.078125 -133.8125 L 65.078125 -40.125 C 65.078125 -30.988281 64.75 -23.648438 64.09375 -18.109375 C 69.3125 -18.597656 75.425781 -18.84375 82.4375 -18.84375 L 82.4375 0 L 12.234375 0 Z M 12.234375 -16.140625 "/></g></g></g><g fill="#f5f3ee" fill-opacity="1"><g transform="translate(298.807431, 243.880021)"><g><path d="M 12.234375 -16.140625 C 16.640625 -16.304688 19.984375 -16.835938 22.265625 -17.734375 C 24.546875 -18.628906 26.335938 -20.546875 27.640625 -23.484375 C 28.941406 -26.421875 29.59375 -31.070312 29.59375 -37.4375 L 29.59375 -131.125 C 29.59375 -140.257812 29.921875 -147.597656 30.578125 -153.140625 L 12.234375 -152.40625 L 12.234375 -171.25 L 82.4375 -171.25 L 82.4375 -155.109375 C 78.039062 -154.941406 74.695312 -154.410156 72.40625 -153.515625 C 70.125 -152.617188 68.332031 -150.703125 67.03125 -147.765625 C 65.726562 -144.828125 65.078125 -140.175781 65.078125 -133.8125 L 65.078125 -40.125 C 65.078125 -30.988281 64.75 -23.648438 64.09375 -18.109375 C 69.3125 -18.597656 75.425781 -18.84375 82.4375 -18.84375 L 82.4375 0 L 12.234375 0 Z M 12.234375 -16.140625 "/></g></g></g><g fill="#f5f3ee" fill-opacity="1"><g transform="translate(409.629533, 243.880021)"><g><path d="M 12.234375 -16.140625 C 16.640625 -16.304688 19.984375 -16.835938 22.265625 -17.734375 C 24.546875 -18.628906 26.335938 -20.546875 27.640625 -23.484375 C 28.941406 -26.421875 29.59375 -31.070312 29.59375 -37.4375 L 29.59375 -131.125 C 29.59375 -140.257812 29.921875 -147.597656 30.578125 -153.140625 L 12.234375 -152.40625 L 12.234375 -171.25 L 82.4375 -171.25 L 82.4375 -155.109375 C 78.039062 -154.941406 74.695312 -154.410156 72.40625 -153.515625 C 70.125 -152.617188 68.332031 -150.703125 67.03125 -147.765625 C 65.726562 -144.828125 65.078125 -140.175781 65.078125 -133.8125 L 65.078125 -40.125 C 65.078125 -30.988281 64.75 -23.648438 64.09375 -18.109375 C 69.3125 -18.597656 75.425781 -18.84375 82.4375 -18.84375 L 82.4375 0 L 12.234375 0 Z M 12.234375 -16.140625 "/></g></g></g></g></g></g><g clip-path="url(#629aaed4d1)"><g transform="matrix(1, 0, 0, 1, 502, 94)"><g clip-path="url(#e816791b19)"><g fill="#f5f3ee" fill-opacity="1"><g transform="translate(2.911994, 517.991598)"><g><path d="M 327.34375 -69.8125 C 308.382812 -69.8125 290.890625 -75.15625 274.859375 -85.84375 C 258.828125 -96.53125 242.019531 -115.492188 224.4375 -142.734375 C 213.75 -121.703125 200.300781 -104.632812 184.09375 -91.53125 C 167.894531 -78.425781 150.144531 -71.875 130.84375 -71.875 C 109.8125 -71.875 92.398438 -77.304688 78.609375 -88.171875 C 64.816406 -99.035156 54.726562 -112.828125 48.34375 -129.546875 C 41.96875 -146.265625 38.78125 -163.929688 38.78125 -182.546875 C 38.78125 -202.203125 42.484375 -220.046875 49.890625 -236.078125 C 57.304688 -252.109375 67.738281 -264.691406 81.1875 -273.828125 C 94.632812 -282.960938 110.320312 -287.53125 128.25 -287.53125 C 148.25 -287.53125 165.914062 -281.664062 181.25 -269.9375 C 196.59375 -258.21875 212.023438 -240.117188 227.546875 -215.640625 C 238.234375 -237.367188 252.710938 -255.210938 270.984375 -269.171875 C 289.253906 -283.128906 308.390625 -290.109375 328.390625 -290.109375 C 357.691406 -290.109375 379.320312 -279.851562 393.28125 -259.34375 C 407.25 -238.832031 414.234375 -211.851562 414.234375 -178.40625 C 414.234375 -158.757812 410.613281 -140.660156 403.375 -124.109375 C 396.132812 -107.566406 385.960938 -94.378906 372.859375 -84.546875 C 359.753906 -74.722656 344.582031 -69.8125 327.34375 -69.8125 Z M 324.765625 -109.109375 C 345.796875 -109.109375 362.257812 -116.175781 374.15625 -130.3125 C 386.050781 -144.445312 392 -162.03125 392 -183.0625 C 392 -203.75 386.394531 -220.816406 375.1875 -234.265625 C 363.976562 -247.710938 349.410156 -254.4375 331.484375 -254.4375 C 314.941406 -254.4375 299 -249.867188 283.65625 -240.734375 C 268.3125 -231.597656 253.570312 -216.34375 239.4375 -194.96875 C 249.4375 -176.34375 258.054688 -161.34375 265.296875 -149.96875 C 272.535156 -138.59375 281.148438 -128.9375 291.140625 -121 C 301.140625 -113.070312 312.347656 -109.109375 324.765625 -109.109375 Z M 129.28125 -109.109375 C 145.488281 -109.109375 160.660156 -113.59375 174.796875 -122.5625 C 188.929688 -131.53125 201.515625 -144.800781 212.546875 -162.375 C 211.859375 -163.070312 211.164062 -164.109375 210.46875 -165.484375 L 204.265625 -176.34375 C 195.992188 -191.164062 188.582031 -203.226562 182.03125 -212.53125 C 175.476562 -221.84375 167.375 -229.859375 157.71875 -236.578125 C 148.070312 -243.304688 136.867188 -246.671875 124.109375 -246.671875 C 106.523438 -246.671875 91.523438 -240.632812 79.109375 -228.5625 C 66.703125 -216.5 60.5 -199.957031 60.5 -178.9375 C 60.5 -158.59375 66.960938 -141.867188 79.890625 -128.765625 C 92.828125 -115.660156 109.289062 -109.109375 129.28125 -109.109375 Z M 129.28125 -109.109375 "/></g></g></g></g></g></g></g></g></svg>