<svg xmlns="http://www.w3.org/2000/svg" xmlns:xlink="http://www.w3.org/1999/xlink" width="1920" zoomAndPan="magnify" viewBox="0 0 1440 809.999993" height="1080" preserveAspectRatio="xMidYMid meet" version="1.0"><defs><g/></defs><g fill="#f5f3ee" fill-opacity="1"><g transform="translate(51.980328, 512.635775)"><g><path d="M 183.8125 -105.984375 L 205.3125 -105.984375 L 205.3125 -25.140625 C 195.425781 -16.453125 183.71875 -9.785156 170.1875 -5.140625 C 156.664062 -0.503906 142.429688 1.8125 127.484375 1.8125 C 106.285156 1.8125 87.207031 -2.828125 70.25 -12.109375 C 53.289062 -21.398438 39.96875 -34.269531 30.28125 -50.71875 C 20.59375 -67.175781 15.75 -85.597656 15.75 -105.984375 C 15.75 -126.378906 20.59375 -144.800781 30.28125 -161.25 C 39.96875 -177.707031 53.289062 -190.578125 70.25 -199.859375 C 87.207031 -209.148438 106.390625 -213.796875 127.796875 -213.796875 C 143.941406 -213.796875 158.773438 -211.222656 172.296875 -206.078125 C 185.828125 -200.929688 197.238281 -193.3125 206.53125 -183.21875 L 192.59375 -168.984375 C 175.84375 -185.535156 154.546875 -193.8125 128.703125 -193.8125 C 111.546875 -193.8125 96.050781 -190.023438 82.21875 -182.453125 C 68.382812 -174.878906 57.53125 -164.378906 49.65625 -150.953125 C 41.789062 -137.535156 37.859375 -122.546875 37.859375 -105.984375 C 37.859375 -89.429688 41.789062 -74.492188 49.65625 -61.171875 C 57.53125 -47.847656 68.332031 -37.347656 82.0625 -29.671875 C 95.789062 -22.003906 111.238281 -18.171875 128.40625 -18.171875 C 150.207031 -18.171875 168.675781 -23.617188 183.8125 -34.515625 Z M 183.8125 -105.984375 "/></g></g></g><g fill="#7b1e3a" fill-opacity="1"><g transform="translate(321.804533, 512.635775)"><g><path d="M 216.515625 0 L 0.609375 0 L 97.515625 -211.984375 L 119.609375 -211.984375 Z M 32.40625 -19.375 L 184.125 -19.375 L 108.40625 -188.96875 Z M 32.40625 -19.375 "/></g></g></g><g fill="#f5f3ee" fill-opacity="1"><g transform="translate(571.648271, 512.635775)"><g><path d="M 183.8125 -105.984375 L 205.3125 -105.984375 L 205.3125 -25.140625 C 195.425781 -16.453125 183.71875 -9.785156 170.1875 -5.140625 C 156.664062 -0.503906 142.429688 1.8125 127.484375 1.8125 C 106.285156 1.8125 87.207031 -2.828125 70.25 -12.109375 C 53.289062 -21.398438 39.96875 -34.269531 30.28125 -50.71875 C 20.59375 -67.175781 15.75 -85.597656 15.75 -105.984375 C 15.75 -126.378906 20.59375 -144.800781 30.28125 -161.25 C 39.96875 -177.707031 53.289062 -190.578125 70.25 -199.859375 C 87.207031 -209.148438 106.390625 -213.796875 127.796875 -213.796875 C 143.941406 -213.796875 158.773438 -211.222656 172.296875 -206.078125 C 185.828125 -200.929688 197.238281 -193.3125 206.53125 -183.21875 L 192.59375 -168.984375 C 175.84375 -185.535156 154.546875 -193.8125 128.703125 -193.8125 C 111.546875 -193.8125 96.050781 -190.023438 82.21875 -182.453125 C 68.382812 -174.878906 57.53125 -164.378906 49.65625 -150.953125 C 41.789062 -137.535156 37.859375 -122.546875 37.859375 -105.984375 C 37.859375 -89.429688 41.789062 -74.492188 49.65625 -61.171875 C 57.53125 -47.847656 68.332031 -37.347656 82.0625 -29.671875 C 95.789062 -22.003906 111.238281 -18.171875 128.40625 -18.171875 C 150.207031 -18.171875 168.675781 -23.617188 183.8125 -34.515625 Z M 183.8125 -105.984375 "/></g></g></g><g fill="#f5f3ee" fill-opacity="1"><g transform="translate(841.467552, 512.635775)"><g><path d="M 127.1875 1.8125 C 106.1875 1.8125 87.15625 -2.878906 70.09375 -12.265625 C 53.039062 -21.648438 39.71875 -34.519531 30.125 -50.875 C 20.539062 -67.226562 15.75 -85.597656 15.75 -105.984375 C 15.75 -126.378906 20.539062 -144.753906 30.125 -161.109375 C 39.71875 -177.460938 53.039062 -190.332031 70.09375 -199.71875 C 87.15625 -209.101562 106.1875 -213.796875 127.1875 -213.796875 C 148.1875 -213.796875 167.113281 -209.148438 183.96875 -199.859375 C 200.820312 -190.578125 214.09375 -177.707031 223.78125 -161.25 C 233.476562 -144.800781 238.328125 -126.378906 238.328125 -105.984375 C 238.328125 -85.597656 233.476562 -67.175781 223.78125 -50.71875 C 214.09375 -34.269531 200.820312 -21.398438 183.96875 -12.109375 C 167.113281 -2.828125 148.1875 1.8125 127.1875 1.8125 Z M 127.1875 -18.171875 C 143.945312 -18.171875 159.085938 -21.953125 172.609375 -29.515625 C 186.140625 -37.085938 196.738281 -47.585938 204.40625 -61.015625 C 212.082031 -74.441406 215.921875 -89.429688 215.921875 -105.984375 C 215.921875 -122.546875 212.082031 -137.535156 204.40625 -150.953125 C 196.738281 -164.378906 186.140625 -174.878906 172.609375 -182.453125 C 159.085938 -190.023438 143.945312 -193.8125 127.1875 -193.8125 C 110.425781 -193.8125 95.234375 -190.023438 81.609375 -182.453125 C 67.984375 -174.878906 57.285156 -164.378906 49.515625 -150.953125 C 41.742188 -137.535156 37.859375 -122.546875 37.859375 -105.984375 C 37.859375 -89.429688 41.742188 -74.441406 49.515625 -61.015625 C 57.285156 -47.585938 67.984375 -37.085938 81.609375 -29.515625 C 95.234375 -21.953125 110.425781 -18.171875 127.1875 -18.171875 Z M 127.1875 -18.171875 "/></g></g></g><g fill="#f5f3ee" fill-opacity="1"><g transform="translate(1131.273485, 512.635775)"><g><path d="M 127.1875 1.8125 C 106.1875 1.8125 87.15625 -2.878906 70.09375 -12.265625 C 53.039062 -21.648438 39.71875 -34.519531 30.125 -50.875 C 20.539062 -67.226562 15.75 -85.597656 15.75 -105.984375 C 15.75 -126.378906 20.539062 -144.753906 30.125 -161.109375 C 39.71875 -177.460938 53.039062 -190.332031 70.09375 -199.71875 C 87.15625 -209.101562 106.1875 -213.796875 127.1875 -213.796875 C 148.1875 -213.796875 167.113281 -209.148438 183.96875 -199.859375 C 200.820312 -190.578125 214.09375 -177.707031 223.78125 -161.25 C 233.476562 -144.800781 238.328125 -126.378906 238.328125 -105.984375 C 238.328125 -85.597656 233.476562 -67.175781 223.78125 -50.71875 C 214.09375 -34.269531 200.820312 -21.398438 183.96875 -12.109375 C 167.113281 -2.828125 148.1875 1.8125 127.1875 1.8125 Z M 127.1875 -18.171875 C 143.945312 -18.171875 159.085938 -21.953125 172.609375 -29.515625 C 186.140625 -37.085938 196.738281 -47.585938 204.40625 -61.015625 C 212.082031 -74.441406 215.921875 -89.429688 215.921875 -105.984375 C 215.921875 -122.546875 212.082031 -137.535156 204.40625 -150.953125 C 196.738281 -164.378906 186.140625 -174.878906 172.609375 -182.453125 C 159.085938 -190.023438 143.945312 -193.8125 127.1875 -193.8125 C 110.425781 -193.8125 95.234375 -190.023438 81.609375 -182.453125 C 67.984375 -174.878906 57.285156 -164.378906 49.515625 -150.953125 C 41.742188 -137.535156 37.859375 -122.546875 37.859375 -105.984375 C 37.859375 -89.429688 41.742188 -74.441406 49.515625 -61.015625 C 57.285156 -47.585938 67.984375 -37.085938 81.609375 -29.515625 C 95.234375 -21.953125 110.425781 -18.171875 127.1875 -18.171875 Z M 127.1875 -18.171875 "/></g></g></g></svg>